@startuml CLS: vehicle

class "vehicle" as VEHICLE_C <<source>> #LightBlue
{
}

interface "vehicle.h" as VEHICLE_H <<public_header>> #LightGreen
{
    + #define VEHICLE_H
    + Vehicle create_vehicle(const char* model, int speed)
    + void move_vehicle(const Vehicle* v)
}

VEHICLE_C --> VEHICLE_H : <<include>>

interface "stdio.h" as STDIO_H <<public_header>> #LightGreen
{
}

VEHICLE_C --> STDIO_H : <<include>>

interface "string.h" as STRING_H <<public_header>> #LightGreen
{
}

VEHICLE_C --> STRING_H : <<include>>


@enduml