@startuml main

class "main" as MAIN <<source>> #LightBlue
{
    -- Functions --
    int main()
}

class "api" as HEADER_API <<header>> #LightGreen
{
    -- Macros --
    + #define API_H
    -- Functions --
    + void initialize_api()
}

class "internal" as HEADER_INTERNAL <<header>> #LightGreen
{
    -- Macros --
    + #define INTERNAL_H
    -- Global Variables --
    + ApiContext global_context
}

class "ApiContext" as TYPEDEF_APICONTEXT <<typedef>> #LightYellow
{
    + char * name
    + int version
}


' Include relationships
HEADER_API --> HEADER_INTERNAL : <<include>>
MAIN --> HEADER_API : <<include>>

' Declaration relationships
HEADER_INTERNAL ..> TYPEDEF_APICONTEXT : <<declares>>

' Uses relationships

@enduml